<svg xmlns="http://www.w3.org/2000/svg" width="38" height="33" viewBox="0 0 38 33">
  <g id="Group_20368" data-name="Group 20368" transform="translate(-263 -188)">
    <g id="Polygon_1" data-name="Polygon 1" transform="translate(263 188)" fill="#e3795b">
      <path d="M 31.08135223388672 31.99999809265137 L 6.918652057647705 31.99999809265137 C 5.834841728210449 31.99999809265137 4.863932132720947 31.43982887268066 4.321471691131592 30.50154876708984 C 3.779011964797974 29.56327819824219 3.778002023696899 28.44235801696777 4.318781852722168 27.50310897827148 L 16.40013122558594 6.519708156585693 C 16.94203186035156 5.578518390655518 17.91394233703613 5.016608238220215 19.00000190734863 5.016608238220215 C 20.08605194091797 5.016608238220215 21.05796241760254 5.578518390655518 21.59987258911133 6.519718170166016 L 33.68122100830078 27.50309753417969 C 34.22200012207031 28.44235801696777 34.22099304199219 29.56327819824219 33.67853164672852 30.50155830383301 C 33.13606262207031 31.43982887268066 32.1651611328125 31.99999809265137 31.08135223388672 31.99999809265137 Z" stroke="none"/>
      <path d="M 19.00000190734863 6.016609191894531 C 18.6523323059082 6.016609191894531 17.7874813079834 6.114248275756836 17.26675224304199 7.018678665161133 L 5.185401916503906 28.00207901000977 C 4.665752410888672 28.90462875366211 5.013542175292969 29.7006778717041 5.187202453613281 30.00103759765625 C 5.360851287841797 30.30139923095703 5.877182006835938 30.99999809265137 6.918651580810547 30.99999809265137 L 31.08135223388672 30.99999809265137 C 32.12282180786133 30.99999809265137 32.63915252685547 30.30139923095703 32.81280136108398 30.00103759765625 C 32.9864501953125 29.7006778717041 33.33425140380859 28.90462875366211 32.81460189819336 28.00206756591797 L 20.73325157165527 7.018678665161133 C 20.21251106262207 6.114248275756836 19.3476619720459 6.016609191894531 19.00000190734863 6.016609191894531 M 18.99999809265137 4.016605377197266 C 20.34860992431641 4.016605377197266 21.69722175598145 4.684652328491211 22.46649169921875 6.020748138427734 L 34.54784393310547 27.0041389465332 C 36.08319091796875 29.67080879211426 34.15843200683594 33 31.08135223388672 33 L 6.918651580810547 33 C 3.841571807861328 33 1.916812896728516 29.67080879211426 3.452163696289063 27.00414848327637 L 15.53351211547852 6.020748138427734 C 16.30277633666992 4.684652328491211 17.65138626098633 4.016605377197266 18.99999809265137 4.016605377197266 Z" stroke="none" fill="#fff"/>
    </g>
    <path id="ic_info_outline_24px" d="M8.3,19.223h2.745V10.989H8.3Zm0-10.978h2.745V5.5H8.3Z" transform="translate(272 196)" fill="#fff"/>
  </g>
</svg>
