<svg id="Group_20536" data-name="Group 20536" xmlns="http://www.w3.org/2000/svg" width="15.089" height="17.244" viewBox="0 0 15.089 17.244">
  <path id="delete" d="M49.535,2.156H45.224V.539A.539.539,0,0,0,44.685,0H39.3a.539.539,0,0,0-.539.539V2.156H34.446V3.233h1.078V16.167A1.079,1.079,0,0,0,36.6,17.244H47.379a1.079,1.079,0,0,0,1.078-1.078V3.233h1.078V2.156Zm-9.7-1.078h4.311V2.156H39.835ZM47.38,16.167v0H36.6V3.233H47.379V16.167Z" transform="translate(-34.446 0)" fill="black"/>
  <path id="Path_16475" data-name="Path 16475" d="M158.627,256.892a.552.552,0,0,0,.552-.552v-6.216a.552.552,0,1,0-1.1,0v6.216A.552.552,0,0,0,158.627,256.892Z" transform="translate(-153.749 -243.445)" fill="black"/>
  <path id="Path_16476" data-name="Path 16476" d="M228.7,256.892a.552.552,0,0,0,.552-.552v-6.216a.552.552,0,1,0-1.1,0v6.216A.552.552,0,0,0,228.7,256.892Z" transform="translate(-221.111 -243.445)" fill="black"/>
  <path id="Path_16477" data-name="Path 16477" d="M298.766,256.892a.552.552,0,0,0,.552-.552v-6.216a.552.552,0,1,0-1.1,0v6.216A.552.552,0,0,0,298.766,256.892Z" transform="translate(-288.472 -243.445)" fill="black"/>
</svg>
