<svg width="107" height="33" viewBox="0 0 107 33" fill="none" xmlns="http://www.w3.org/2000/svg">
<path fill-rule="evenodd" clip-rule="evenodd" d="M7.21505 19.9067C7.95661 19.1601 8.36409 18.2055 8.43866 17.2296C8.43869 17.2293 8.43908 17.2291 8.43931 17.2294C8.43955 17.2296 8.43993 17.2294 8.43996 17.2291C8.60074 15.0855 9.43226 13.0761 10.9605 11.5376C12.4898 9.99784 14.4845 9.1607 16.6138 9.00001C16.6141 8.99999 16.6143 8.99959 16.6141 8.99935C16.6138 8.99912 16.614 8.99872 16.6143 8.99869C18.7943 8.82824 20.5113 6.99478 20.5113 4.75711C20.5124 2.405 18.6202 0.5 16.285 0.5C14.0613 0.5 12.2402 2.22857 12.072 4.42331C12.072 4.42364 12.0716 4.42379 12.0713 4.42355C12.0711 4.42332 12.0707 4.42347 12.0707 4.4238C11.9099 6.5675 11.0784 8.57682 9.55019 10.1154C8.0208 11.6551 6.02616 12.4922 3.89687 12.6529C3.89654 12.6529 3.89639 12.6533 3.89662 12.6536C3.89685 12.6538 3.8967 12.6542 3.89637 12.6542C2.92694 12.7305 1.97881 13.1407 1.23845 13.8861C-0.412795 15.5486 -0.412795 18.2431 1.23845 19.9056C2.88733 21.5679 5.56381 21.5679 7.21505 19.9067ZM4.61758 8.88424C5.59864 8.80917 6.55936 8.4033 7.31071 7.66781C8.98331 6.02791 8.98331 3.36982 7.31071 1.72993C5.63812 0.0900242 2.92704 0.0900242 1.25446 1.72993C-0.418133 3.36982 -0.418133 6.02791 1.25446 7.66781C2.17569 8.57104 3.41279 8.97691 4.61758 8.88424ZM12.07 15.7712C12.0702 15.7714 12.0706 15.7712 12.0706 15.7709C12.2388 13.5761 14.0597 11.8475 16.2832 11.8475C18.6181 11.8475 20.5101 13.7525 20.5113 16.1047C20.5113 18.3423 18.7945 20.1759 16.6147 20.3462C16.6144 20.3463 16.6142 20.3467 16.6145 20.3469C16.6147 20.3471 16.6146 20.3475 16.6142 20.3476C14.4852 20.5083 12.4908 21.3454 10.9616 22.8851C9.43355 24.4237 8.60214 26.4331 8.44137 28.5767C8.44134 28.5771 8.44095 28.5772 8.44071 28.577C8.44048 28.5768 8.44009 28.5769 8.44006 28.5773C8.3655 29.5521 7.95807 30.5067 7.21659 31.2532C5.56554 32.9156 2.88936 32.9156 1.23829 31.2532C-0.412764 29.5907 -0.412764 26.8962 1.23829 25.2337C1.97857 24.4884 2.9266 24.0781 3.89591 24.0019C3.89625 24.0018 3.8964 24.0014 3.89617 24.0012C3.89593 24.001 3.89609 24.0005 3.89643 24.0005C6.02548 23.8398 8.01989 23.0027 9.5491 21.463C11.0771 19.9244 11.9085 17.915 12.0693 15.7714C12.0693 15.7711 12.0697 15.7709 12.07 15.7712Z" fill="#4ba4da"/>
<path d="M39.2066 5.65576C40.7321 5.65576 42.0745 5.95272 43.2339 6.54664C44.4136 7.12008 45.3187 7.94952 45.9493 9.03496C46.6001 10.1204 46.9256 11.3799 46.9256 12.8135C46.9256 14.2471 46.6001 15.5066 45.9493 16.5921C45.3187 17.657 44.4136 18.4865 43.2339 19.0804C42.0745 19.6538 40.7321 19.9406 39.2066 19.9406H35.0877V27.1598H30.5112V5.65576H39.2066ZM35.0877 16.1006H38.7794C39.8574 16.1006 40.7117 15.8036 41.3423 15.2097C41.9728 14.6158 42.2881 13.817 42.2881 12.8135C42.2881 11.7895 41.9728 10.9806 41.3423 10.3866C40.7117 9.79272 39.8574 9.49576 38.7794 9.49576H35.0877V16.1006Z" fill="black"/>
<path d="M63.9218 11.3697V27.1598H60.108L59.7114 25.2551C59.1622 25.9105 58.5215 26.4225 57.7893 26.7911C57.057 27.1598 56.1621 27.3441 55.1044 27.3441C53.2738 27.3441 51.7788 26.7809 50.6194 25.6545C49.46 24.5076 48.8804 22.603 48.8804 19.9406V11.3697H53.1823V19.4183C53.1823 20.8519 53.4263 21.9374 53.9145 22.6746C54.423 23.3914 55.1959 23.7498 56.2333 23.7498C57.3113 23.7498 58.1452 23.3505 58.7351 22.5518C59.3249 21.7326 59.6199 20.5959 59.6199 19.1418V11.3697H63.9218Z" fill="black"/>
<path d="M66.9127 5.65576H71.2146V27.1598H66.9127V5.65576Z" fill="black"/>
<path d="M77.7211 21.9066C77.7821 22.603 78.1177 23.1662 78.7279 23.5962C79.3381 24.0263 80.1212 24.2414 81.0772 24.2414C81.9925 24.2414 82.7145 24.098 83.2434 23.8113C83.7722 23.5041 84.0366 23.074 84.0366 22.521C84.0366 22.1114 83.9146 21.8042 83.6705 21.5994C83.4264 21.3946 83.0807 21.2513 82.6332 21.1694C82.1857 21.067 81.4535 20.9543 80.4365 20.8314C79.0533 20.6471 77.9041 20.4116 76.9888 20.1249C76.0735 19.8382 75.3413 19.3876 74.7921 18.7732C74.2429 18.1588 73.9684 17.3396 73.9684 16.3156C73.9684 15.2916 74.2429 14.3905 74.7921 13.6122C75.3616 12.8135 76.1549 12.1991 77.1719 11.769C78.1889 11.339 79.3584 11.1239 80.6805 11.1239C82.8162 11.1444 84.535 11.6052 85.8367 12.5063C87.1588 13.4074 87.8707 14.6567 87.9724 16.2542H83.8841C83.8231 15.6602 83.5078 15.179 82.9383 14.8103C82.3891 14.4212 81.6772 14.2266 80.8026 14.2266C79.989 14.2266 79.3279 14.3802 78.8194 14.6874C78.3313 14.9946 78.0872 15.4042 78.0872 15.9162C78.0872 16.2849 78.2194 16.5614 78.4838 16.7457C78.7482 16.93 79.094 17.0631 79.5212 17.145C79.9483 17.227 80.6602 17.3191 81.6569 17.4215C83.7722 17.6673 85.3892 18.1281 86.5079 18.8039C87.647 19.4593 88.2165 20.5959 88.2165 22.2138C88.2165 23.2378 87.9114 24.139 87.3012 24.9172C86.7113 25.6954 85.8774 26.2996 84.7994 26.7297C83.7417 27.1393 82.5111 27.3441 81.1077 27.3441C78.9313 27.3441 77.1617 26.8628 75.799 25.9002C74.4362 24.9172 73.7141 23.586 73.6327 21.9066H77.7211Z" fill="black"/>
<path d="M90.0788 19.2954C90.0788 17.657 90.4042 16.2337 91.0551 15.0254C91.7263 13.7966 92.6518 12.8545 93.8315 12.1991C95.0316 11.5233 96.4147 11.1854 97.9809 11.1854C99.5674 11.1854 100.961 11.5028 102.161 12.1377C103.381 12.7521 104.327 13.6327 104.998 14.7796C105.69 15.906 106.046 17.2372 106.066 18.7732C106.066 19.3262 106.025 19.8177 105.944 20.2478H94.5638V20.3706C94.6655 21.5175 95.0316 22.4186 95.6621 23.074C96.2927 23.7294 97.1571 24.057 98.2555 24.057C99.1301 24.057 99.8521 23.8727 100.422 23.5041C101.012 23.115 101.398 22.5518 101.581 21.8145H105.822C105.659 22.859 105.263 23.801 104.632 24.6407C104.002 25.4804 103.168 26.146 102.13 26.6375C101.093 27.1086 99.903 27.3441 98.5606 27.3441C96.8113 27.3441 95.296 27.0164 94.0146 26.361C92.7535 25.7057 91.7772 24.7738 91.0856 23.5655C90.4144 22.3367 90.0788 20.9134 90.0788 19.2954ZM101.764 17.4215C101.622 16.459 101.225 15.7217 100.574 15.2097C99.9437 14.6772 99.1403 14.411 98.1639 14.411C97.2283 14.411 96.435 14.6874 95.7842 15.2404C95.1536 15.7729 94.7773 16.4999 94.6553 17.4215H101.764Z" fill="black"/>
</svg>
